<?xml version="1.0" encoding="UTF-8" standalone="no"?><svg xmlns="http://www.w3.org/2000/svg" xmlns:xlink="http://www.w3.org/1999/xlink" contentScriptType="application/ecmascript" contentStyleType="text/css" height="409px" preserveAspectRatio="none" style="width:849px;height:409px;" version="1.1" viewBox="0 0 849 409" width="849px" zoomAndPan="magnify"><defs><filter height="300%" id="ffmfj50o6cadh" width="300%" x="-1" y="-1"><feGaussianBlur result="blurOut" stdDeviation="2.0"/><feColorMatrix in="blurOut" result="blurOut2" type="matrix" values="0 0 0 0 0 0 0 0 0 0 0 0 0 0 0 0 0 0 .4 0"/><feOffset dx="4.0" dy="4.0" in="blurOut2" result="blurOut3"/><feBlend in="SourceGraphic" in2="blurOut3" mode="normal"/></filter></defs><g><!--class Users--><rect fill="#FEFECE" filter="url(#ffmfj50o6cadh)" height="73.6094" id="Users" style="stroke: #A80036; stroke-width: 1.5;" width="146" x="87.5" y="14"/><ellipse cx="110.6" cy="30" fill="#FFA07A" rx="11" ry="11" style="stroke: #A80036; stroke-width: 1.0;"/><path d="M111.8031,30.1406 Q112.1625,30.2188 112.4281,30.5 Q112.7094,30.7656 113.1,31.5469 L115.3344,36 L112.6469,36 L111.1469,32.875 Q111.0844,32.7344 110.975,32.5 Q110.3188,31.1094 109.4281,31.1094 L108.6469,31.1094 L108.6469,36 L106.2094,36 L106.2094,23.6094 L109.7406,23.6094 Q112.1313,23.6094 113.1625,24.4531 Q114.2094,25.2969 114.2094,27.2031 Q114.2094,28.4844 113.5844,29.25 Q112.975,30 111.8031,30.1406 Z M108.6469,25.6719 L108.6469,29.0469 L109.8031,29.0469 Q110.8188,29.0469 111.2406,28.6563 Q111.6781,28.25 111.6781,27.3438 Q111.6781,26.4531 111.2406,26.0625 Q110.8188,25.6719 109.8031,25.6719 L108.6469,25.6719 Z "/><text fill="#000000" font-family="sans-serif" font-size="12" lengthAdjust="spacingAndGlyphs" textLength="36" x="126.4" y="34.1543">Users</text><rect fill="#FFFFFF" height="15.9688" style="stroke: #000000; stroke-width: 1.0; stroke-dasharray: 2.0,2.0;" width="58" x="178.5" y="11"/><text fill="#000000" font-family="sans-serif" font-size="12" font-style="italic" lengthAdjust="spacingAndGlyphs" textLength="56" x="179.5" y="23.1387">res.users</text><line style="stroke: #A80036; stroke-width: 1.5;" x1="88.5" x2="232.5" y1="46" y2="46"/><polygon fill="none" points="98.5,52.9023,102.5,56.9023,98.5,60.9023,94.5,56.9023" style="stroke: #B38D22; stroke-width: 1.0;"/><text fill="#000000" font-family="sans-serif" font-size="11" lengthAdjust="spacingAndGlyphs" textLength="120" x="107.5" y="60.2104">id : integer «nextval»</text><line style="stroke: #A80036; stroke-width: 1.0;" x1="88.5" x2="232.5" y1="66.8047" y2="66.8047"/><text fill="#000000" font-family="sans-serif" font-size="11" lengthAdjust="spacingAndGlyphs" textLength="0" x="97.5" y="81.0151"/><!--class Partner--><rect fill="#FEFECE" filter="url(#ffmfj50o6cadh)" height="86.4141" id="Partner" style="stroke: #A80036; stroke-width: 1.5;" width="355" x="384" y="8"/><ellipse cx="496.75" cy="24" fill="#FFA07A" rx="11" ry="11" style="stroke: #A80036; stroke-width: 1.0;"/><path d="M497.9531,24.1406 Q498.3125,24.2188 498.5781,24.5 Q498.8594,24.7656 499.25,25.5469 L501.4844,30 L498.7969,30 L497.2969,26.875 Q497.2344,26.7344 497.125,26.5 Q496.4688,25.1094 495.5781,25.1094 L494.7969,25.1094 L494.7969,30 L492.3594,30 L492.3594,17.6094 L495.8906,17.6094 Q498.2813,17.6094 499.3125,18.4531 Q500.3594,19.2969 500.3594,21.2031 Q500.3594,22.4844 499.7344,23.25 Q499.125,24 497.9531,24.1406 Z M494.7969,19.6719 L494.7969,23.0469 L495.9531,23.0469 Q496.9688,23.0469 497.3906,22.6563 Q497.8281,22.25 497.8281,21.3438 Q497.8281,20.4531 497.3906,20.0625 Q496.9688,19.6719 495.9531,19.6719 L494.7969,19.6719 Z "/><text fill="#000000" font-family="sans-serif" font-size="12" lengthAdjust="spacingAndGlyphs" textLength="47" x="517.25" y="28.1543">Partner</text><rect fill="#FFFFFF" height="15.9688" style="stroke: #000000; stroke-width: 1.0; stroke-dasharray: 2.0,2.0;" width="72" x="670" y="5"/><text fill="#000000" font-family="sans-serif" font-size="12" font-style="italic" lengthAdjust="spacingAndGlyphs" textLength="70" x="671" y="17.1387">res.partner</text><line style="stroke: #A80036; stroke-width: 1.5;" x1="385" x2="738" y1="40" y2="40"/><polygon fill="none" points="395,46.9023,399,50.9023,395,54.9023,391,50.9023" style="stroke: #B38D22; stroke-width: 1.0;"/><text fill="#000000" font-family="sans-serif" font-size="11" lengthAdjust="spacingAndGlyphs" textLength="120" x="404" y="54.2104">id : integer «nextval»</text><line style="stroke: #A80036; stroke-width: 1.0;" x1="385" x2="738" y1="60.8047" y2="60.8047"/><text fill="#000000" font-family="sans-serif" font-size="11" lengthAdjust="spacingAndGlyphs" textLength="153" x="404" y="75.0151">instructor = fields.Boolean</text><rect fill="#F24D5C" height="6" style="stroke: #C82930; stroke-width: 1.0;" width="6" x="392" y="82.5117"/><text fill="#000000" font-family="sans-serif" font-size="11" lengthAdjust="spacingAndGlyphs" textLength="329" x="404" y="87.8198">session_ids = fields.Many2many('openacademy.session')</text><!--class Course--><rect fill="#FEFECE" filter="url(#ffmfj50o6cadh)" height="112.0234" id="Course" style="stroke: #A80036; stroke-width: 1.5;" width="309" x="6" y="228.5"/><ellipse cx="134.25" cy="244.5" fill="#ADD1B2" rx="11" ry="11" style="stroke: #A80036; stroke-width: 1.0;"/><path d="M138.3594,250.5 L130.6406,250.5 L130.6406,238.1094 L138.3594,238.1094 L138.3594,240.2656 L133.0938,240.2656 L133.0938,242.9375 L137.8594,242.9375 L137.8594,245.0938 L133.0938,245.0938 L133.0938,248.3438 L138.3594,248.3438 L138.3594,250.5 Z "/><text fill="#000000" font-family="sans-serif" font-size="12" lengthAdjust="spacingAndGlyphs" textLength="44" x="154.75" y="248.6543">Course</text><line style="stroke: #A80036; stroke-width: 1.5;" x1="7" x2="314" y1="260.5" y2="260.5"/><polygon fill="none" points="17,267.4023,21,271.4023,17,275.4023,13,271.4023" style="stroke: #B38D22; stroke-width: 1.0;"/><text fill="#000000" font-family="sans-serif" font-size="11" lengthAdjust="spacingAndGlyphs" textLength="120" x="26" y="274.7104">id : integer «nextval»</text><line style="stroke: #A80036; stroke-width: 1.0;" x1="7" x2="314" y1="281.3047" y2="281.3047"/><ellipse cx="17" cy="293.207" fill="#000000" rx="3" ry="3" style="stroke: #000000; stroke-width: 1.0;"/><text fill="#000000" font-family="sans-serif" font-size="11" lengthAdjust="spacingAndGlyphs" textLength="71" x="26" y="295.5151">name : Char</text><text fill="#000000" font-family="sans-serif" font-size="11" lengthAdjust="spacingAndGlyphs" textLength="99" x="26" y="308.3198">description : Text</text><ellipse cx="17" cy="318.8164" fill="#84BE84" rx="3" ry="3" style="stroke: #038048; stroke-width: 1.0;"/><text fill="#000000" font-family="sans-serif" font-size="11" lengthAdjust="spacingAndGlyphs" textLength="222" x="26" y="321.1245">responsible_id : Many2one('res.users')</text><polygon fill="#4177AF" points="17,327.6211,13,333.6211,21,333.6211" style="stroke: #1963A0; stroke-width: 1.0;"/><text fill="#000000" font-family="sans-serif" font-size="11" lengthAdjust="spacingAndGlyphs" textLength="283" x="26" y="333.9292">session_ids : One2many('openacademy.session')</text><!--class Session--><rect fill="#FEFECE" filter="url(#ffmfj50o6cadh)" height="227.2656" id="Session" style="stroke: #A80036; stroke-width: 1.5;" width="286" x="412.5" y="171"/><ellipse cx="526.75" cy="187" fill="#ADD1B2" rx="11" ry="11" style="stroke: #A80036; stroke-width: 1.0;"/><path d="M530.8594,193 L523.1406,193 L523.1406,180.6094 L530.8594,180.6094 L530.8594,182.7656 L525.5938,182.7656 L525.5938,185.4375 L530.3594,185.4375 L530.3594,187.5938 L525.5938,187.5938 L525.5938,190.8438 L530.8594,190.8438 L530.8594,193 Z "/><text fill="#000000" font-family="sans-serif" font-size="12" lengthAdjust="spacingAndGlyphs" textLength="49" x="547.25" y="191.1543">Session</text><line style="stroke: #A80036; stroke-width: 1.5;" x1="413.5" x2="697.5" y1="203" y2="203"/><polygon fill="none" points="423.5,209.9023,427.5,213.9023,423.5,217.9023,419.5,213.9023" style="stroke: #B38D22; stroke-width: 1.0;"/><text fill="#000000" font-family="sans-serif" font-size="11" lengthAdjust="spacingAndGlyphs" textLength="120" x="432.5" y="217.2104">id : integer «nextval»</text><line style="stroke: #A80036; stroke-width: 1.0;" x1="413.5" x2="697.5" y1="223.8047" y2="223.8047"/><ellipse cx="423.5" cy="235.707" fill="#000000" rx="3" ry="3" style="stroke: #000000; stroke-width: 1.0;"/><text fill="#000000" font-family="sans-serif" font-size="11" lengthAdjust="spacingAndGlyphs" textLength="71" x="432.5" y="238.0151">name : Char</text><text fill="#000000" font-family="sans-serif" font-size="11" lengthAdjust="spacingAndGlyphs" textLength="96" x="432.5" y="250.8198">start_date : Date</text><text fill="#000000" font-family="sans-serif" font-size="11" lengthAdjust="spacingAndGlyphs" textLength="86" x="432.5" y="263.6245">duration : Float</text><text fill="#000000" font-family="sans-serif" font-size="11" lengthAdjust="spacingAndGlyphs" textLength="84" x="432.5" y="276.4292">seats : Integer</text><text fill="#000000" font-family="sans-serif" font-size="11" lengthAdjust="spacingAndGlyphs" textLength="91" x="432.5" y="289.2339">active : Boolean</text><text fill="#000000" font-family="sans-serif" font-size="11" lengthAdjust="spacingAndGlyphs" textLength="80" x="432.5" y="302.0386">color : Integer</text><ellipse cx="423.5" cy="312.5352" fill="#84BE84" rx="3" ry="3" style="stroke: #038048; stroke-width: 1.0;"/><text fill="#000000" font-family="sans-serif" font-size="11" lengthAdjust="spacingAndGlyphs" textLength="219" x="432.5" y="314.8433">instructor_id : Many2one('res.partner')</text><ellipse cx="423.5" cy="325.3398" fill="#84BE84" rx="3" ry="3" style="stroke: #038048; stroke-width: 1.0;"/><text fill="#000000" font-family="sans-serif" font-size="11" lengthAdjust="spacingAndGlyphs" textLength="260" x="432.5" y="327.6479">course_id : Many2one('openacademy.course')</text><rect fill="#F24D5C" height="6" style="stroke: #C82930; stroke-width: 1.0;" width="6" x="420.5" y="335.1445"/><text fill="#000000" font-family="sans-serif" font-size="11" lengthAdjust="spacingAndGlyphs" textLength="231" x="432.5" y="340.4526">attendee_ids : Many2many('res.partner')</text><text fill="#000000" font-family="sans-serif" font-size="11" lengthAdjust="spacingAndGlyphs" textLength="108" x="432.5" y="353.2573">taken_seats : Float</text><text fill="#000000" font-family="sans-serif" font-size="11" lengthAdjust="spacingAndGlyphs" textLength="90" x="432.5" y="366.062">end_date : Date</text><text fill="#000000" font-family="sans-serif" font-size="11" lengthAdjust="spacingAndGlyphs" textLength="72" x="432.5" y="378.8667">hours : Float</text><text fill="#000000" font-family="sans-serif" font-size="11" lengthAdjust="spacingAndGlyphs" textLength="146" x="432.5" y="391.6714">attendees_count : Integer</text><!--link Users to Course--><path d="M160.5,96.5148 C160.5,131.6763 160.5,180.792 160.5,220.0014 " fill="none" id="Users-Course" style="stroke: #A80036; stroke-width: 1.0; stroke-dasharray: 7.0,7.0;"/><line style="stroke: #A80036; stroke-width: 1.0;" x1="160.5" x2="166.5" y1="220.2093" y2="228.2093"/><line style="stroke: #A80036; stroke-width: 1.0;" x1="160.5" x2="154.5" y1="220.2093" y2="228.2093"/><line style="stroke: #A80036; stroke-width: 1.0;" x1="160.5" x2="160.5" y1="220.2093" y2="228.2093"/><ellipse cx="160.5" cy="214.2093" fill="none" rx="4" ry="4" style="stroke: #A80036; stroke-width: 1.0;"/><line style="stroke: #A80036; stroke-width: 1.0;" x1="156.5" x2="164.5" y1="92.257" y2="92.257"/><line style="stroke: #A80036; stroke-width: 1.0;" x1="156.5" x2="164.5" y1="95.257" y2="95.257"/><line style="stroke: #A80036; stroke-width: 1.0;" x1="160.5" x2="160.5" y1="96.257" y2="88.257"/><text fill="#000000" font-family="sans-serif" font-size="13" lengthAdjust="spacingAndGlyphs" textLength="91" x="161.5" y="137.0669">responsible_id</text><!--link Partner to Session--><path d="M505.0007,100.6805 C499.5394,107.9409 494.8093,115.7676 491.5,124 C486.4503,136.5621 485.1704,149.6834 486.4879,162.7763 " fill="none" id="Partner-Session" style="stroke: #A80036; stroke-width: 1.0; stroke-dasharray: 7.0,7.0;"/><line style="stroke: #A80036; stroke-width: 1.0;" x1="486.5191" x2="493.575" y1="162.9975" y2="170.0837"/><line style="stroke: #A80036; stroke-width: 1.0;" x1="486.5191" x2="481.692" y1="162.9975" y2="171.7553"/><line style="stroke: #A80036; stroke-width: 1.0;" x1="486.5191" x2="487.6335" y1="162.9975" y2="170.9195"/><ellipse cx="485.6833" cy="157.056" fill="none" rx="4" ry="4" style="stroke: #A80036; stroke-width: 1.0;"/><line style="stroke: #A80036; stroke-width: 1.0;" x1="504.5797" x2="510.8275" y1="94.8023" y2="99.7987"/><line style="stroke: #A80036; stroke-width: 1.0;" x1="502.706" x2="508.9539" y1="97.1453" y2="102.1417"/><line style="stroke: #A80036; stroke-width: 1.0;" x1="505.2054" x2="510.2018" y1="100.4245" y2="94.1766"/><text fill="#000000" font-family="sans-serif" font-size="13" lengthAdjust="spacingAndGlyphs" textLength="79" x="492.5" y="137.0669">instructor_id</text><!--link Partner to Session--><path d="M573.3319,101.9242 C574.6446,109.2943 575.7695,116.8158 576.5,124 C577.7712,136.5024 577.9575,149.5345 577.3992,162.5295 " fill="none" id="Partner-Session" style="stroke: #A80036; stroke-width: 1.0; stroke-dasharray: 7.0,7.0;"/><line style="stroke: #A80036; stroke-width: 1.0;" x1="577.3942" x2="582.9494" y1="162.6229" y2="170.9379"/><line style="stroke: #A80036; stroke-width: 1.0;" x1="577.3942" x2="570.9672" y1="162.6229" y2="170.2841"/><line style="stroke: #A80036; stroke-width: 1.0;" x1="577.3942" x2="576.9583" y1="162.6229" y2="170.611"/><ellipse cx="577.721" cy="156.6318" fill="none" rx="4" ry="4" style="stroke: #A80036; stroke-width: 1.0;"/><line style="stroke: #A80036; stroke-width: 1.0;" x1="573.322" x2="565.9469" y1="101.8715" y2="95.1181"/><line style="stroke: #A80036; stroke-width: 1.0;" x1="573.322" x2="577.7403" y1="101.8715" y2="92.9005"/><line style="stroke: #A80036; stroke-width: 1.0;" x1="573.322" x2="571.8436" y1="101.8715" y2="94.0093"/><ellipse cx="574.4308" cy="107.7682" fill="none" rx="4" ry="4" style="stroke: #A80036; stroke-width: 1.0;"/><text fill="#000000" font-family="sans-serif" font-size="13" lengthAdjust="spacingAndGlyphs" textLength="260" x="577.5" y="137.0669">[openacademy_session_res_partner_rel]</text><!--link Course to Session--><path d="M323.4817,284.5 C350.197,284.5 377.7819,284.5 404.1986,284.5 " fill="none" id="Course-Session" style="stroke: #A80036; stroke-width: 1.0; stroke-dasharray: 7.0,7.0;"/><line style="stroke: #A80036; stroke-width: 1.0;" x1="404.3571" x2="412.3571" y1="284.5" y2="278.5"/><line style="stroke: #A80036; stroke-width: 1.0;" x1="404.3571" x2="412.3571" y1="284.5" y2="290.5"/><line style="stroke: #A80036; stroke-width: 1.0;" x1="404.3571" x2="412.3571" y1="284.5" y2="284.5"/><ellipse cx="398.3571" cy="284.5" fill="none" rx="4" ry="4" style="stroke: #A80036; stroke-width: 1.0;"/><line style="stroke: #A80036; stroke-width: 1.0;" x1="319.1975" x2="319.1975" y1="288.5" y2="280.5"/><line style="stroke: #A80036; stroke-width: 1.0;" x1="322.1975" x2="322.1975" y1="288.5" y2="280.5"/><line style="stroke: #A80036; stroke-width: 1.0;" x1="323.1975" x2="315.1975" y1="284.5" y2="284.5"/><text fill="#000000" font-family="sans-serif" font-size="13" lengthAdjust="spacingAndGlyphs" textLength="61" x="333.25" y="277.5669">course_id</text><!--
@startuml




entity "Users" <res.users> <<R, ffa07a>> {
  #id : integer <<nextval>>
  - -

}

entity "Partner" <res.partner> <<R, ffa07a>> {
  #id : integer <<nextval>>
  - -
   instructor = fields.Boolean
  -session_ids = fields.Many2many('openacademy.session')
}

entity "Course" {
  #id : integer <<nextval>>
  - -
  *name : Char
   description : Text
  +responsible_id : Many2one('res.users')
  ~session_ids : One2many('openacademy.session')
}

Users ||.do.o{ Course : responsible_id

entity "Session" {
  #id : integer <<nextval>>
  - -
  *name : Char
   start_date : Date
   duration : Float
   seats : Integer
   active : Boolean
   color : Integer
  +instructor_id : Many2one('res.partner')
  +course_id : Many2one('openacademy.course')
  -attendee_ids : Many2many('res.partner')
   taken_seats : Float
   end_date : Date
   hours : Float
   attendees_count : Integer
}


Partner ||.do.o{ Session : instructor_id
Session }o.up.o{ Partner  : [openacademy_session_res_partner_rel]
Course ||.ri.o{ Session : course_id


@enduml

PlantUML version 1.2018.13(Mon Nov 26 17:11:51 UTC 2018)
(GPL source distribution)
Java Runtime: OpenJDK Runtime Environment
JVM: OpenJDK 64-Bit Server VM
Java Version: 11.0.8+10-post-Debian-1deb10u1
Operating System: Linux
OS Version: 4.15.0-1092-azure
Default Encoding: UTF-8
Language: en
Country: null
--></g></svg>