<?xml version="1.0" encoding="UTF-8" standalone="no"?><svg xmlns="http://www.w3.org/2000/svg" xmlns:xlink="http://www.w3.org/1999/xlink" contentScriptType="application/ecmascript" contentStyleType="text/css" height="409px" preserveAspectRatio="none" style="width:1014px;height:409px;" version="1.1" viewBox="0 0 1014 409" width="1014px" zoomAndPan="magnify"><defs><filter height="300%" id="f1bhz3gf955yp9" width="300%" x="-1" y="-1"><feGaussianBlur result="blurOut" stdDeviation="2.0"/><feColorMatrix in="blurOut" result="blurOut2" type="matrix" values="0 0 0 0 0 0 0 0 0 0 0 0 0 0 0 0 0 0 .4 0"/><feOffset dx="4.0" dy="4.0" in="blurOut2" result="blurOut3"/><feBlend in="SourceGraphic" in2="blurOut3" mode="normal"/></filter></defs><g><!--class Partner--><rect fill="#FEFECE" filter="url(#f1bhz3gf955yp9)" height="86.4141" id="Partner" style="stroke: #A80036; stroke-width: 1.5;" width="355" x="92.5" y="8"/><ellipse cx="205.25" cy="24" fill="#FFA07A" rx="11" ry="11" style="stroke: #A80036; stroke-width: 1.0;"/><path d="M206.4531,24.1406 Q206.8125,24.2188 207.0781,24.5 Q207.3594,24.7656 207.75,25.5469 L209.9844,30 L207.2969,30 L205.7969,26.875 Q205.7344,26.7344 205.625,26.5 Q204.9688,25.1094 204.0781,25.1094 L203.2969,25.1094 L203.2969,30 L200.8594,30 L200.8594,17.6094 L204.3906,17.6094 Q206.7813,17.6094 207.8125,18.4531 Q208.8594,19.2969 208.8594,21.2031 Q208.8594,22.4844 208.2344,23.25 Q207.625,24 206.4531,24.1406 Z M203.2969,19.6719 L203.2969,23.0469 L204.4531,23.0469 Q205.4688,23.0469 205.8906,22.6563 Q206.3281,22.25 206.3281,21.3438 Q206.3281,20.4531 205.8906,20.0625 Q205.4688,19.6719 204.4531,19.6719 L203.2969,19.6719 Z "/><text fill="#000000" font-family="sans-serif" font-size="12" lengthAdjust="spacingAndGlyphs" textLength="47" x="225.75" y="28.1543">Partner</text><rect fill="#FFFFFF" height="15.9688" style="stroke: #000000; stroke-width: 1.0; stroke-dasharray: 2.0,2.0;" width="72" x="378.5" y="5"/><text fill="#000000" font-family="sans-serif" font-size="12" font-style="italic" lengthAdjust="spacingAndGlyphs" textLength="70" x="379.5" y="17.1387">res.partner</text><line style="stroke: #A80036; stroke-width: 1.5;" x1="93.5" x2="446.5" y1="40" y2="40"/><polygon fill="none" points="103.5,46.9023,107.5,50.9023,103.5,54.9023,99.5,50.9023" style="stroke: #B38D22; stroke-width: 1.0;"/><text fill="#000000" font-family="sans-serif" font-size="11" lengthAdjust="spacingAndGlyphs" textLength="120" x="112.5" y="54.2104">id : integer «nextval»</text><line style="stroke: #A80036; stroke-width: 1.0;" x1="93.5" x2="446.5" y1="60.8047" y2="60.8047"/><text fill="#000000" font-family="sans-serif" font-size="11" lengthAdjust="spacingAndGlyphs" textLength="153" x="112.5" y="75.0151">instructor = fields.Boolean</text><rect fill="#F24D5C" height="6" style="stroke: #C82930; stroke-width: 1.0;" width="6" x="100.5" y="82.5117"/><text fill="#000000" font-family="sans-serif" font-size="11" lengthAdjust="spacingAndGlyphs" textLength="329" x="112.5" y="87.8198">session_ids = fields.Many2many('openacademy.session')</text><!--class Session--><rect fill="#FEFECE" filter="url(#f1bhz3gf955yp9)" height="227.2656" id="Session" style="stroke: #A80036; stroke-width: 1.5;" width="286" x="6" y="171"/><ellipse cx="120.25" cy="187" fill="#ADD1B2" rx="11" ry="11" style="stroke: #A80036; stroke-width: 1.0;"/><path d="M124.3594,193 L116.6406,193 L116.6406,180.6094 L124.3594,180.6094 L124.3594,182.7656 L119.0938,182.7656 L119.0938,185.4375 L123.8594,185.4375 L123.8594,187.5938 L119.0938,187.5938 L119.0938,190.8438 L124.3594,190.8438 L124.3594,193 Z "/><text fill="#000000" font-family="sans-serif" font-size="12" lengthAdjust="spacingAndGlyphs" textLength="49" x="140.75" y="191.1543">Session</text><line style="stroke: #A80036; stroke-width: 1.5;" x1="7" x2="291" y1="203" y2="203"/><polygon fill="none" points="17,209.9023,21,213.9023,17,217.9023,13,213.9023" style="stroke: #B38D22; stroke-width: 1.0;"/><text fill="#000000" font-family="sans-serif" font-size="11" lengthAdjust="spacingAndGlyphs" textLength="120" x="26" y="217.2104">id : integer «nextval»</text><line style="stroke: #A80036; stroke-width: 1.0;" x1="7" x2="291" y1="223.8047" y2="223.8047"/><ellipse cx="17" cy="235.707" fill="#000000" rx="3" ry="3" style="stroke: #000000; stroke-width: 1.0;"/><text fill="#000000" font-family="sans-serif" font-size="11" lengthAdjust="spacingAndGlyphs" textLength="71" x="26" y="238.0151">name : Char</text><text fill="#000000" font-family="sans-serif" font-size="11" lengthAdjust="spacingAndGlyphs" textLength="96" x="26" y="250.8198">start_date : Date</text><text fill="#000000" font-family="sans-serif" font-size="11" lengthAdjust="spacingAndGlyphs" textLength="86" x="26" y="263.6245">duration : Float</text><text fill="#000000" font-family="sans-serif" font-size="11" lengthAdjust="spacingAndGlyphs" textLength="84" x="26" y="276.4292">seats : Integer</text><text fill="#000000" font-family="sans-serif" font-size="11" lengthAdjust="spacingAndGlyphs" textLength="91" x="26" y="289.2339">active : Boolean</text><text fill="#000000" font-family="sans-serif" font-size="11" lengthAdjust="spacingAndGlyphs" textLength="80" x="26" y="302.0386">color : Integer</text><ellipse cx="17" cy="312.5352" fill="#84BE84" rx="3" ry="3" style="stroke: #038048; stroke-width: 1.0;"/><text fill="#000000" font-family="sans-serif" font-size="11" lengthAdjust="spacingAndGlyphs" textLength="219" x="26" y="314.8433">instructor_id : Many2one('res.partner')</text><ellipse cx="17" cy="325.3398" fill="#84BE84" rx="3" ry="3" style="stroke: #038048; stroke-width: 1.0;"/><text fill="#000000" font-family="sans-serif" font-size="11" lengthAdjust="spacingAndGlyphs" textLength="260" x="26" y="327.6479">course_id : Many2one('openacademy.course')</text><rect fill="#F24D5C" height="6" style="stroke: #C82930; stroke-width: 1.0;" width="6" x="14" y="335.1445"/><text fill="#000000" font-family="sans-serif" font-size="11" lengthAdjust="spacingAndGlyphs" textLength="231" x="26" y="340.4526">attendee_ids : Many2many('res.partner')</text><text fill="#000000" font-family="sans-serif" font-size="11" lengthAdjust="spacingAndGlyphs" textLength="108" x="26" y="353.2573">taken_seats : Float</text><text fill="#000000" font-family="sans-serif" font-size="11" lengthAdjust="spacingAndGlyphs" textLength="90" x="26" y="366.062">end_date : Date</text><text fill="#000000" font-family="sans-serif" font-size="11" lengthAdjust="spacingAndGlyphs" textLength="72" x="26" y="378.8667">hours : Float</text><text fill="#000000" font-family="sans-serif" font-size="11" lengthAdjust="spacingAndGlyphs" textLength="146" x="26" y="391.6714">attendees_count : Integer</text><!--class Wizard--><rect fill="#FEFECE" filter="url(#f1bhz3gf955yp9)" height="86.4141" id="Wizard" style="stroke: #A80036; stroke-width: 1.5;" width="350" x="653" y="241.5"/><ellipse cx="803.75" cy="257.5" fill="#ADD1B2" rx="11" ry="11" style="stroke: #A80036; stroke-width: 1.0;"/><path d="M807.8594,263.5 L800.1406,263.5 L800.1406,251.1094 L807.8594,251.1094 L807.8594,253.2656 L802.5938,253.2656 L802.5938,255.9375 L807.3594,255.9375 L807.3594,258.0938 L802.5938,258.0938 L802.5938,261.3438 L807.8594,261.3438 L807.8594,263.5 Z "/><text fill="#000000" font-family="sans-serif" font-size="12" lengthAdjust="spacingAndGlyphs" textLength="40" x="824.25" y="261.6543">Wizard</text><line style="stroke: #A80036; stroke-width: 1.5;" x1="654" x2="1002" y1="273.5" y2="273.5"/><polygon fill="none" points="664,280.4023,668,284.4023,664,288.4023,660,284.4023" style="stroke: #B38D22; stroke-width: 1.0;"/><text fill="#000000" font-family="sans-serif" font-size="11" lengthAdjust="spacingAndGlyphs" textLength="120" x="673" y="287.7104">id : integer «nextval»</text><line style="stroke: #A80036; stroke-width: 1.0;" x1="654" x2="1002" y1="294.3047" y2="294.3047"/><polygon fill="#4177AF" points="664,302.207,660,308.207,668,308.207" style="stroke: #1963A0; stroke-width: 1.0;"/><text fill="#000000" font-family="sans-serif" font-size="11" lengthAdjust="spacingAndGlyphs" textLength="324" x="673" y="308.5151">session_ids : fields.Many2many('openacademy.session')</text><polygon fill="#4177AF" points="664,315.0117,660,321.0117,668,321.0117" style="stroke: #1963A0; stroke-width: 1.0;"/><text fill="#000000" font-family="sans-serif" font-size="11" lengthAdjust="spacingAndGlyphs" textLength="266" x="673" y="321.3198">attendee_ids : fields.Many2many('res.partner')</text><!--link Partner to Session--><path d="M165.9652,99.5353 C158.1203,106.7164 151.2366,114.8405 146,124 C139.2357,135.8317 135.1651,148.9998 133.0061,162.562 " fill="none" id="Partner-Session" style="stroke: #A80036; stroke-width: 1.0; stroke-dasharray: 7.0,7.0;"/><line style="stroke: #A80036; stroke-width: 1.0;" x1="132.9941" x2="137.8985" y1="162.6542" y2="171.3689"/><line style="stroke: #A80036; stroke-width: 1.0;" x1="132.9941" x2="126.0011" y1="162.6542" y2="169.8025"/><line style="stroke: #A80036; stroke-width: 1.0;" x1="132.9941" x2="131.9498" y1="162.6542" y2="170.5857"/><ellipse cx="133.7773" cy="156.7055" fill="none" rx="4" ry="4" style="stroke: #A80036; stroke-width: 1.0;"/><line style="stroke: #A80036; stroke-width: 1.0;" x1="166.4994" x2="171.7149" y1="93.8008" y2="99.8669"/><line style="stroke: #A80036; stroke-width: 1.0;" x1="164.2246" x2="169.4401" y1="95.7567" y2="101.8228"/><line style="stroke: #A80036; stroke-width: 1.0;" x1="166.0741" x2="172.1402" y1="99.4417" y2="94.2261"/><text fill="#000000" font-family="sans-serif" font-size="13" lengthAdjust="spacingAndGlyphs" textLength="79" x="147" y="137.0669">instructor_id</text><!--link Partner to Session--><path d="M249.2574,101.5502 C243.6123,114.5375 237.3073,128.3974 231,141 C227.34,148.313 223.4787,155.7762 219.5061,163.2656 " fill="none" id="Partner-Session" style="stroke: #A80036; stroke-width: 1.0; stroke-dasharray: 7.0,7.0;"/><line style="stroke: #A80036; stroke-width: 1.0;" x1="219.2718" x2="220.7912" y1="163.7042" y2="173.5881"/><line style="stroke: #A80036; stroke-width: 1.0;" x1="219.2718" x2="210.2086" y1="163.7042" y2="167.9303"/><line style="stroke: #A80036; stroke-width: 1.0;" x1="219.2718" x2="215.4999" y1="163.7042" y2="170.7592"/><ellipse cx="222.1007" cy="158.4129" fill="none" rx="4" ry="4" style="stroke: #A80036; stroke-width: 1.0;"/><line style="stroke: #A80036; stroke-width: 1.0;" x1="249.3358" x2="246.9891" y1="101.3682" y2="91.6474"/><line style="stroke: #A80036; stroke-width: 1.0;" x1="249.3358" x2="258.0107" y1="101.3682" y2="96.3936"/><line style="stroke: #A80036; stroke-width: 1.0;" x1="249.3358" x2="252.4999" y1="101.3682" y2="94.0205"/><ellipse cx="246.9627" cy="106.8789" fill="none" rx="4" ry="4" style="stroke: #A80036; stroke-width: 1.0;"/><text fill="#000000" font-family="sans-serif" font-size="13" lengthAdjust="spacingAndGlyphs" textLength="260" x="241" y="137.0669">[openacademy_session_res_partner_rel]</text><!--link Session to Wizard--><path d="M300.2511,284.5 C402.0349,284.5 536.8285,284.5 644.7106,284.5 " fill="none" id="Session-Wizard" style="stroke: #A80036; stroke-width: 1.0; stroke-dasharray: 7.0,7.0;"/><line style="stroke: #A80036; stroke-width: 1.0;" x1="644.7583" x2="652.7583" y1="284.5" y2="278.5"/><line style="stroke: #A80036; stroke-width: 1.0;" x1="644.7583" x2="652.7583" y1="284.5" y2="290.5"/><line style="stroke: #A80036; stroke-width: 1.0;" x1="644.7583" x2="652.7583" y1="284.5" y2="284.5"/><ellipse cx="638.7583" cy="284.5" fill="none" rx="4" ry="4" style="stroke: #A80036; stroke-width: 1.0;"/><line style="stroke: #A80036; stroke-width: 1.0;" x1="300.1688" x2="292.1688" y1="284.5" y2="290.5"/><line style="stroke: #A80036; stroke-width: 1.0;" x1="300.1688" x2="292.1688" y1="284.5" y2="278.5"/><line style="stroke: #A80036; stroke-width: 1.0;" x1="300.1688" x2="292.1688" y1="284.5" y2="284.5"/><ellipse cx="306.1688" cy="284.5" fill="none" rx="4" ry="4" style="stroke: #A80036; stroke-width: 1.0;"/><text fill="#000000" font-family="sans-serif" font-size="13" lengthAdjust="spacingAndGlyphs" textLength="324" x="310.5" y="277.5669">[openacademy_session_openacademy_wizard_rel]</text><!--link Partner to Wizard--><path d="M433.3026,96.5285 C459.2211,104.9378 485.5338,114.1897 510,124 C592.0748,156.9098 681.6732,203.1287 744.7849,237.5219 " fill="none" id="Partner-Wizard" style="stroke: #A80036; stroke-width: 1.0; stroke-dasharray: 7.0,7.0;"/><line style="stroke: #A80036; stroke-width: 1.0;" x1="744.9418" x2="754.8392" y1="237.6077" y2="236.1793"/><line style="stroke: #A80036; stroke-width: 1.0;" x1="744.9418" x2="749.0844" y1="237.6077" y2="246.7093"/><line style="stroke: #A80036; stroke-width: 1.0;" x1="744.9418" x2="751.9618" y1="237.6077" y2="241.4443"/><ellipse cx="739.6768" cy="234.7303" fill="none" rx="4" ry="4" style="stroke: #A80036; stroke-width: 1.0;"/><line style="stroke: #A80036; stroke-width: 1.0;" x1="433.2563" x2="423.803" y1="96.5137" y2="99.7747"/><line style="stroke: #A80036; stroke-width: 1.0;" x1="433.2563" x2="427.4788" y1="96.5137" y2="88.3515"/><line style="stroke: #A80036; stroke-width: 1.0;" x1="433.2563" x2="425.6409" y1="96.5137" y2="94.0631"/><ellipse cx="438.9679" cy="98.3516" fill="none" rx="4" ry="4" style="stroke: #A80036; stroke-width: 1.0;"/><text fill="#000000" font-family="sans-serif" font-size="13" lengthAdjust="spacingAndGlyphs" textLength="315" x="546" y="137.0669">[openacademy_wizard_res_partner_relPermalink]</text><!--
@startuml





entity "Partner" <res.partner> <<R, ffa07a>> {
  #id : integer <<nextval>>
  - -
   instructor = fields.Boolean
  -session_ids = fields.Many2many('openacademy.session')
}

entity "Session" {
  #id : integer <<nextval>>
  - -
  *name : Char
   start_date : Date
   duration : Float
   seats : Integer
   active : Boolean
   color : Integer
  +instructor_id : Many2one('res.partner')
  +course_id : Many2one('openacademy.course')
  -attendee_ids : Many2many('res.partner')
   taken_seats : Float
   end_date : Date
   hours : Float
   attendees_count : Integer
}

Partner ||.do.o{ Session : instructor_id
Session }o.up.o{ Partner  : [openacademy_session_res_partner_rel]

entity "Wizard" {
  #id : integer <<nextval>>
  - -
  ~session_ids : fields.Many2many('openacademy.session')
  ~attendee_ids : fields.Many2many('res.partner')
}

Session }o.ri.o{ Wizard : [openacademy_session_openacademy_wizard_rel]
Wizard }o.up.o{ Partner : [openacademy_wizard_res_partner_relPermalink]


@enduml

PlantUML version 1.2018.13(Mon Nov 26 17:11:51 UTC 2018)
(GPL source distribution)
Java Runtime: OpenJDK Runtime Environment
JVM: OpenJDK 64-Bit Server VM
Java Version: 11.0.8+10-post-Debian-1deb10u1
Operating System: Linux
OS Version: 4.15.0-1092-azure
Default Encoding: UTF-8
Language: en
Country: null
--></g></svg>